{"title":"Arthur &amp; Merlin(2015)MPEG-4[DaScubaDude]","uid":13668486,"size":1089643909,"categoryP":"video","categoryS":"movies","magnet":"?xt=urn:btih:424ffffc4fc13f9eba16f4600a88f26c03692772&amp;dn=Arthur+%26amp%3B+Merlin%282015%29MPEG-4%5BDaScubaDude%5D&amp;tr=udp%3A%2F%2Ftracker.leechers-paradise.org%3A6969&amp;tr=udp%3A%2F%2Fzer0day.ch%3A1337&amp;tr=udp%3A%2F%2Fopen.demonii.com%3A1337&amp;tr=udp%3A%2F%2Ftracker.coppersurfer.tk%3A6969&amp;tr=udp%3A%2F%2Fexodus.desync.com%3A6969","seeders":0,"leechers":1,"uploader":"dascuba","files":1,"time":1456288750,"description":"Arthur &amp; Merlin (2015)\r\n1h 40min | Fantasy | 11 April 2015 (UK)\r\nA young Celtic warrior and a hermit wizard must unite to defeat an evil druid.\r\nDirector: Marco van Belle\r\nWriters: Marco van Belle, Kat Wood\r\nStars: Kirk Barker, Stefan Butler, Nigel Cooke \r\nGeneral\r\nComplete name                            : Arthur &amp; MerlinARTHUR_AND_MERLIN_Title4.mp4\r\nFormat                                   : MPEG-4\r\nFormat profile                           : Base Media\r\nCodec ID                                 : isom\r\nFile size                                : 1.01 GiB\r\nDuration                                 : 1h 48mn\r\nOverall bit rate                         : 1 334 Kbps\r\nMovie name                               : ARTHUR_AND_MERLIN\r\nGenre                                    : Science_Fiction\r\nWriting application                      : Lavf54.6.100\r\n\r\nVideo\r\nID                                       : 1\r\nFormat                                   : AVC\r\nFormat/Info                              : Advanced Video Codec\r\nFormat profile                           :   \r\nFormat settings, CABAC                   : No\r\nFormat settings, ReFrames                : 6 frames\r\nFormat settings, GOP                     : M=1, N=60\r\nCodec ID                                 : avc1\r\nCodec ID/Info                            : Advanced Video Coding\r\nDuration                                 : 1h 48mn\r\nBit rate                                 : 1 199 Kbps\r\nWidth                                    : 720 pixels\r\nHeight                                   : 404 pixels\r\nDisplay aspect ratio                     : 16:9\r\nFrame rate mode                          : Constant\r\nFrame rate                               : 29.970 fps\r\nColor space                              : YUV\r\nChroma subsampling                       : 4:2:0\r\nBit depth                                : 8 bits\r\nScan type                                : Progressive\r\nBits/(Pixel*Frame)                       : 0.138\r\nStream size                              : 934 MiB (90%)\r\n\r\nAudio\r\nID                                       : 2\r\nFormat                                   : AAC\r\nFormat/Info                              : Advanced Audio Codec\r\nFormat profile                           : LC\r\nCodec ID                                 : 40\r\nDuration                                 : 1h 48mn\r\nBit rate mode                            : Constant\r\nBit rate                                 : 128 Kbps\r\nChannel(s)                               : 2 channels\r\nChannel positions                        : Front: L R\r\nSampling rate                            : 44.1 KHz\r\nCompression mode                         : Lossy\r\nStream size                              : 99.7 MiB (10%)","torrent":{"xt":"urn:btih:424ffffc4fc13f9eba16f4600a88f26c03692772","amp;dn":"Arthur+%26amp%3B+Merlin%282015%29MPEG-4%5BDaScubaDude%5D","amp;tr":["udp%3A%2F%2Ftracker.leechers-paradise.org%3A6969","udp%3A%2F%2Fzer0day.ch%3A1337","udp%3A%2F%2Fopen.demonii.com%3A1337","udp%3A%2F%2Ftracker.coppersurfer.tk%3A6969","udp%3A%2F%2Fexodus.desync.com%3A6969"],"infoHash":"424ffffc4fc13f9eba16f4600a88f26c03692772","infoHashBuffer":{"type":"Buffer","data":[66,79,255,252,79,193,63,158,186,22,244,96,10,136,242,108,3,105,39,114]},"announce":[],"urlList":[]}}